<?xml version="1.0" standalone="no"?>
<!DOCTYPE svg PUBLIC "-//W3C//DTD SVG 20010904//EN"
 "http://www.w3.org/TR/2001/REC-SVG-20010904/DTD/svg10.dtd">
<svg version="1.0" xmlns="http://www.w3.org/2000/svg"
 width="512.000000pt" height="512.000000pt" viewBox="0 0 512.000000 512.000000"
 preserveAspectRatio="xMidYMid meet">
<metadata>
Created by potrace 1.14, written by Peter Selinger 2001-2017
</metadata>
<g transform="translate(0.000000,512.000000) scale(0.100000,-0.100000)"
fill="#000000" stroke="none">
<path d="M2379 4936 c-2 -2 -42 -7 -88 -10 -46 -4 -86 -8 -90 -10 -3 -2 -29
-6 -57 -10 -28 -3 -111 -21 -185 -40 -647 -164 -1188 -593 -1498 -1186 -185
-354 -272 -725 -265 -1130 1 -102 5 -196 7 -210 3 -14 8 -49 11 -79 15 -126
68 -343 122 -491 52 -141 165 -364 248 -488 100 -150 180 -247 311 -377 294
-292 659 -499 1062 -601 73 -18 154 -36 180 -40 26 -3 57 -8 68 -10 98 -19
394 -25 538 -12 93 9 240 34 318 54 31 7 69 16 85 18 16 2 46 11 66 20 21 9
51 18 67 19 17 2 37 9 45 16 8 7 21 9 27 5 8 -4 9 -3 5 4 -4 7 -3 12 3 12 5 0
17 3 27 7 13 5 15 3 10 -8 -4 -8 -1 -6 8 5 8 10 20 15 27 10 8 -4 10 -3 5 4
-6 11 6 16 27 13 4 0 7 4 7 10 0 6 7 9 15 5 8 -3 15 -1 15 4 0 9 39 26 53 22
4 -1 7 3 7 9 0 6 7 8 16 5 10 -4 13 -2 8 6 -5 8 -2 9 10 5 9 -4 15 -3 12 1 -2
4 9 15 25 25 18 10 28 12 24 4 -4 -6 0 -4 8 6 8 9 19 17 26 17 6 0 11 5 11 11
0 5 5 7 10 4 6 -3 10 -1 10 4 0 6 6 11 13 11 8 0 24 9 37 20 12 11 28 17 34
13 6 -3 8 -3 4 2 -10 10 61 57 74 49 6 -4 8 -2 5 3 -9 14 19 37 34 27 7 -4 9
-3 6 3 -7 12 113 109 128 104 5 -1 7 0 3 4 -10 11 29 48 41 40 7 -3 10 -2 9 3
-4 12 122 138 134 134 5 -1 7 2 3 7 -7 13 30 52 41 43 4 -4 4 -2 0 5 -3 6 4
19 16 27 12 9 19 16 15 16 -5 0 -1 7 8 16 9 9 23 27 32 40 8 13 19 21 24 18 5
-3 8 -2 7 3 -4 11 63 113 74 113 5 0 7 4 3 9 -3 6 3 14 12 20 10 6 15 11 11
11 -7 0 28 59 52 87 5 7 10 17 10 22 0 18 37 71 44 64 4 -4 4 0 0 10 -3 10 -1
17 5 17 6 0 10 3 9 8 -4 14 14 52 24 52 6 0 9 3 6 6 -4 3 9 39 28 81 55 120
139 385 126 398 -3 3 -1 5 4 5 5 0 10 8 10 18 1 9 4 35 8 57 4 22 10 54 12 70
3 17 7 36 10 44 17 50 25 407 12 561 -44 535 -293 1066 -683 1455 -430 430
-986 667 -1596 680 -103 2 -188 3 -190 1z"/>
</g>
</svg>
