<?xml version="1.0" standalone="no"?>
<!DOCTYPE svg PUBLIC "-//W3C//DTD SVG 20010904//EN"
 "http://www.w3.org/TR/2001/REC-SVG-20010904/DTD/svg10.dtd">
<svg version="1.0" xmlns="http://www.w3.org/2000/svg"
 width="512.000000pt" height="512.000000pt" viewBox="0 0 512.000000 512.000000"
 preserveAspectRatio="xMidYMid meet">

<g transform="translate(0.000000,512.000000) scale(0.100000,-0.100000)"
fill="#000000" stroke="none">
<path d="M2390 4934 c-303 -26 -545 -84 -788 -190 -466 -203 -843 -543 -1100
-992 -411 -717 -411 -1617 0 -2334 374 -653 994 -1068 1748 -1169 119 -16 437
-16 550 0 243 34 447 89 646 175 410 178 769 479 1019 855 489 737 522 1706
83 2473 -368 643 -984 1061 -1713 1163 -104 15 -366 26 -445 19z m-125 -1855
c149 -314 273 -573 278 -575 4 -3 10 3 14 13 4 10 125 268 270 573 l263 555
275 3 276 2 -35 -62 c-19 -35 -212 -400 -430 -811 l-396 -748 0 -435 0 -434
-245 0 -245 0 0 448 0 449 -401 759 c-221 417 -410 776 -420 797 l-19 37 272
0 273 0 270 -571z"/>
</g>
</svg>
